<svg width="11" height="10" viewBox="0 0 11 10" fill="none" xmlns="http://www.w3.org/2000/svg">
<path d="M2.47434 0.811157L5.46796 3.29956L8.53003 0.811157V0.81183L8.52633 0.815193V4.29963L5.50249 6.84183L2.47434 4.39782V0.811157Z" fill="#EA4335"/>
<path d="M1.68795 0.205778L2.47412 0.811065V4.39773L0.000296831 2.37472V1.15608C0.000296831 1.15608 0.300584 -0.584458 1.68795 0.205778Z" fill="#FBBC05"/>
<path d="M2.47412 4.39764V9.0496H0.578056C0.578056 9.0496 0.0385265 8.99042 -0.000319719 8.33537V2.37463L2.47412 4.39764Z" fill="#34A853"/>
<path d="M8.52599 9.05382V4.29963L8.53003 4.29626L8.52599 9.05382Z" fill="#C5221F"/>
<path d="M8.52988 0.811547L9.31173 0.209623C10.6991 -0.580613 11 1.15925 11 1.15925V2.3779L8.52988 4.29598V0.811547Z" fill="#C5221F"/>
<path d="M8.53003 0.81189V4.29632L8.52599 4.29969V0.815253L8.53003 0.81189Z" fill="#C5221F"/>
<path d="M11 2.37878V8.33952C10.9618 8.99524 10.4216 9.05375 10.4216 9.05375H8.52556L8.52988 4.2962L11 2.37878Z" fill="#4285F4"/>
</svg>
