<svg width="12" height="12" viewBox="0 0 12 12" fill="none" xmlns="http://www.w3.org/2000/svg">
<path d="M9.9231 2.79735C9.9231 2.39853 9.59988 2.07651 9.20255 2.07651C8.8052 2.07651 8.48169 2.39853 8.48169 2.79735C8.48169 3.1947 8.8052 3.51672 9.20255 3.51672C9.59988 3.51672 9.9231 3.1947 9.9231 2.79735Z" fill="url(#paint0_linear_128_267)"/>
<path d="M10.8833 8.42422C10.8566 9.00927 10.7587 9.32713 10.6775 9.53825C10.5684 9.81818 10.4382 10.0183 10.2271 10.2283C10.0183 10.4382 9.81818 10.5681 9.53825 10.676C9.32713 10.7585 9.00807 10.8566 8.42304 10.8845C7.79056 10.9123 7.60315 10.9183 5.99926 10.9183C4.39685 10.9183 4.20795 10.9123 3.57547 10.8845C2.99044 10.8566 2.67287 10.7585 2.46173 10.676C2.18033 10.5681 1.98167 10.4382 1.77173 10.2283C1.5603 10.0183 1.43014 9.81818 1.3225 9.53825C1.24124 9.32713 1.14192 9.00927 1.1167 8.42422C1.08587 7.79174 1.08023 7.60137 1.08023 6.00074C1.08023 4.39685 1.08587 4.20795 1.1167 3.57547C1.14192 2.99044 1.24124 2.67286 1.3225 2.45995C1.43014 2.18033 1.5603 1.98136 1.77173 1.77142C1.98167 1.56179 2.18033 1.4316 2.46173 1.3225C2.67287 1.23977 2.99044 1.1431 3.57547 1.11523C4.20795 1.08734 4.39685 1.08022 5.99926 1.08022C7.60315 1.08022 7.79056 1.08734 8.42304 1.11523C9.00807 1.1431 9.32713 1.23977 9.53825 1.3225C9.81818 1.4316 10.0183 1.56179 10.2271 1.77142C10.4382 1.98136 10.5684 2.18033 10.6775 2.45995C10.7587 2.67286 10.8566 2.99044 10.8833 3.57547C10.9126 4.20795 10.9198 4.39685 10.9198 6.00074C10.9198 7.60137 10.9126 7.79174 10.8833 8.42422ZM11.9635 3.52625C11.9342 2.88694 11.8333 2.45016 11.6836 2.06974C11.5312 1.67506 11.3269 1.34058 10.9924 1.0061C10.6594 0.673114 10.3249 0.468801 9.93026 0.314617C9.54835 0.166348 9.11304 0.0643368 8.47344 0.0364704C7.83384 0.00562477 7.62955 -2.86102e-06 5.99926 -2.86102e-06C4.37045 -2.86102e-06 4.16467 0.00562477 3.52507 0.0364704C2.88694 0.0643368 2.45194 0.166348 2.06825 0.314617C1.67506 0.468801 1.34058 0.673114 1.00759 1.0061C0.673115 1.34058 0.468803 1.67506 0.314908 2.06974C0.166639 2.45016 0.0658281 2.88694 0.0349823 3.52625C0.00711655 4.16585 0 4.37045 0 6.00074C0 7.62955 0.00711655 7.83384 0.0349823 8.47344C0.0658281 9.11157 0.166639 9.54804 0.314908 9.93026C0.468803 10.3235 0.673115 10.6594 1.00759 10.9924C1.34058 11.3254 1.67506 11.5312 2.06825 11.6851C2.45194 11.8333 2.88694 11.9342 3.52507 11.9635C4.16467 11.9929 4.37045 12 5.99926 12C7.62955 12 7.83384 11.9929 8.47344 11.9635C9.11304 11.9342 9.54835 11.8333 9.93026 11.6851C10.3249 11.5312 10.6594 11.3254 10.9924 10.9924C11.3269 10.6594 11.5312 10.3235 11.6836 9.93026C11.8333 9.54804 11.9342 9.11157 11.9635 8.47344C11.9929 7.83384 12 7.62955 12 6.00074C12 4.37045 11.9929 4.16585 11.9635 3.52625Z" fill="url(#paint1_linear_128_267)"/>
<path d="M5.99917 7.99909C4.89521 7.99909 3.99942 7.10477 3.99942 6.00081C3.99942 4.89508 4.89521 3.99959 5.99917 3.99959C7.10343 3.99959 8.00041 4.89508 8.00041 6.00081C8.00041 7.10477 7.10343 7.99909 5.99917 7.99909ZM5.99917 2.91787C4.29742 2.91787 2.91919 4.29906 2.91919 6.00081C2.91919 7.70109 4.29742 9.08081 5.99917 9.08081C7.70091 9.08081 9.08064 7.70109 9.08064 6.00081C9.08064 4.29906 7.70091 2.91787 5.99917 2.91787Z" fill="url(#paint2_linear_128_267)"/>
<defs>
<linearGradient id="paint0_linear_128_267" x1="0.10819" y1="11.8759" x2="11.0005" y2="0.983635" gradientUnits="userSpaceOnUse">
<stop stop-color="#FFD521"/>
<stop offset="0.05" stop-color="#FFD521"/>
<stop offset="0.501119" stop-color="#F50000"/>
<stop offset="0.95" stop-color="#B900B4"/>
<stop offset="0.950079" stop-color="#B900B4"/>
<stop offset="1" stop-color="#B900B4"/>
</linearGradient>
<linearGradient id="paint1_linear_128_267" x1="0.108238" y1="11.8909" x2="11.0095" y2="0.989646" gradientUnits="userSpaceOnUse">
<stop stop-color="#FFD521"/>
<stop offset="0.05" stop-color="#FFD521"/>
<stop offset="0.501119" stop-color="#F50000"/>
<stop offset="0.95" stop-color="#B900B4"/>
<stop offset="0.950079" stop-color="#B900B4"/>
<stop offset="1" stop-color="#B900B4"/>
</linearGradient>
<linearGradient id="paint2_linear_128_267" x1="0.110976" y1="11.8912" x2="11.0096" y2="0.992642" gradientUnits="userSpaceOnUse">
<stop stop-color="#FFD521"/>
<stop offset="0.05" stop-color="#FFD521"/>
<stop offset="0.501119" stop-color="#F50000"/>
<stop offset="0.95" stop-color="#B900B4"/>
<stop offset="0.950079" stop-color="#B900B4"/>
<stop offset="1" stop-color="#B900B4"/>
</linearGradient>
</defs>
</svg>
