<svg width="31" height="32" viewBox="0 0 31 32" fill="none" xmlns="http://www.w3.org/2000/svg">
<path d="M25.6358 7.45985C25.6358 6.39634 24.8008 5.53761 23.7743 5.53761C22.7479 5.53761 21.9121 6.39634 21.9121 7.45985C21.9121 8.51944 22.7479 9.37817 23.7743 9.37817C24.8008 9.37817 25.6358 8.51944 25.6358 7.45985" fill="url(#paint0_linear_259_35)"/>
<path d="M28.1151 22.4646C28.0462 24.0247 27.7934 24.8724 27.5835 25.4353C27.3016 26.1818 26.9654 26.7155 26.42 27.2754C25.8807 27.8352 25.3636 28.1816 24.6405 28.4694C24.0951 28.6892 23.2708 28.9509 21.7595 29.0253C20.1256 29.0996 19.6415 29.1154 15.4981 29.1154C11.3585 29.1154 10.8705 29.0996 9.23663 29.0253C7.72531 28.9509 6.9049 28.6892 6.35946 28.4694C5.63253 28.1816 5.11932 27.8352 4.57698 27.2754C4.03079 26.7155 3.69452 26.1818 3.41646 25.4353C3.20653 24.8724 2.94995 24.0247 2.8848 22.4646C2.80518 20.778 2.79058 20.2703 2.79058 16.002C2.79058 11.7249 2.80518 11.2212 2.8848 9.53458C2.94995 7.97451 3.20653 7.12765 3.41646 6.55986C3.69452 5.81423 4.03079 5.28363 4.57698 4.72379C5.11932 4.16479 5.63253 3.81762 6.35946 3.52667C6.9049 3.30606 7.72531 3.04826 9.23663 2.97395C10.8705 2.89958 11.3585 2.8806 15.4981 2.8806C19.6415 2.8806 20.1256 2.89958 21.7595 2.97395C23.2708 3.04826 24.0951 3.30606 24.6405 3.52667C25.3636 3.81762 25.8807 4.16479 26.42 4.72379C26.9654 5.28363 27.3016 5.81423 27.5835 6.55986C27.7934 7.12765 28.0462 7.97451 28.1151 9.53458C28.191 11.2212 28.2094 11.7249 28.2094 16.002C28.2094 20.2703 28.191 20.778 28.1151 22.4646V22.4646ZM30.9058 9.40334C30.8299 7.69851 30.5695 6.53377 30.1826 5.5193C29.7889 4.46683 29.2611 3.57489 28.3971 2.68294C27.5368 1.79498 26.6728 1.25014 25.6532 0.838986C24.6666 0.443602 23.542 0.171571 21.8897 0.0972622C20.2374 0.0150067 19.7097 2.60671e-07 15.4981 2.60671e-07C11.2903 2.60671e-07 10.7587 0.0150067 9.10644 0.0972622C7.45793 0.171571 6.33418 0.443602 5.34298 0.838986C4.32724 1.25014 3.46317 1.79498 2.60295 2.68294C1.73888 3.57489 1.21107 4.46683 0.813511 5.5193C0.430483 6.53377 0.170056 7.69851 0.090371 9.40334C0.0183844 11.1089 0 11.6545 0 16.002C0 20.3455 0.0183844 20.8902 0.090371 22.5958C0.170056 24.2975 0.430483 25.4614 0.813511 26.4807C1.21107 27.5292 1.73888 28.4251 2.60295 29.3131C3.46317 30.2011 4.32724 30.7499 5.34298 31.1602C6.33418 31.5556 7.45793 31.8245 9.10644 31.9027C10.7587 31.981 11.2903 32 15.4981 32C19.7097 32 20.2374 31.981 21.8897 31.9027C23.542 31.8245 24.6666 31.5556 25.6532 31.1602C26.6728 30.7499 27.5368 30.2011 28.3971 29.3131C29.2611 28.4251 29.7889 27.5292 30.1826 26.4807C30.5695 25.4614 30.8299 24.2975 30.9058 22.5958C30.9816 20.8902 31 20.3455 31 16.002C31 11.6545 30.9816 11.1089 30.9058 9.40334V9.40334Z" fill="url(#paint1_linear_259_35)"/>
<path d="M15.4976 21.331C12.6457 21.331 10.3316 18.9461 10.3316 16.0022C10.3316 13.0536 12.6457 10.6657 15.4976 10.6657C18.3503 10.6657 20.6675 13.0536 20.6675 16.0022C20.6675 18.9461 18.3503 21.331 15.4976 21.331V21.331ZM15.4976 7.78108C11.1014 7.78108 7.54102 11.4643 7.54102 16.0022C7.54102 20.5363 11.1014 24.2156 15.4976 24.2156C19.8938 24.2156 23.4581 20.5363 23.4581 16.0022C23.4581 11.4643 19.8938 7.78108 15.4976 7.78108Z" fill="url(#paint2_linear_259_35)"/>
<defs>
<linearGradient id="paint0_linear_259_35" x1="0.280567" y1="31.6692" x2="29.312" y2="3.54513" gradientUnits="userSpaceOnUse">
<stop stop-color="#FFD521"/>
<stop offset="0.05" stop-color="#FFD521"/>
<stop offset="0.501119" stop-color="#F50000"/>
<stop offset="0.95" stop-color="#B900B4"/>
<stop offset="0.950079" stop-color="#B900B4"/>
<stop offset="1" stop-color="#B900B4"/>
</linearGradient>
<linearGradient id="paint1_linear_259_35" x1="0.279616" y1="31.709" x2="29.3349" y2="3.56168" gradientUnits="userSpaceOnUse">
<stop stop-color="#FFD521"/>
<stop offset="0.05" stop-color="#FFD521"/>
<stop offset="0.501119" stop-color="#F50000"/>
<stop offset="0.95" stop-color="#B900B4"/>
<stop offset="0.950079" stop-color="#B900B4"/>
<stop offset="1" stop-color="#B900B4"/>
</linearGradient>
<linearGradient id="paint2_linear_259_35" x1="0.286466" y1="31.7101" x2="29.3348" y2="3.56953" gradientUnits="userSpaceOnUse">
<stop stop-color="#FFD521"/>
<stop offset="0.05" stop-color="#FFD521"/>
<stop offset="0.501119" stop-color="#F50000"/>
<stop offset="0.95" stop-color="#B900B4"/>
<stop offset="0.950079" stop-color="#B900B4"/>
<stop offset="1" stop-color="#B900B4"/>
</linearGradient>
</defs>
</svg>
