<svg width="32" height="33" viewBox="0 0 32 33" fill="none" xmlns="http://www.w3.org/2000/svg">
<path d="M31.5889 16.2185C31.5889 24.4095 25.6753 31.181 17.9936 32.2802C17.2751 32.3829 16.5402 32.4361 15.7944 32.4361C14.9331 32.4361 14.0882 32.3652 13.2642 32.2288C5.74442 30.9858 0 24.29 0 16.2176C0 7.26085 7.07138 0 15.7944 0C24.5175 0 31.5889 7.26085 31.5889 16.2176V16.2185Z" fill="#007EBB"/>
<path d="M7.68589 10.7414C7.26479 10.3398 7.05469 9.843 7.05469 9.25186C7.05469 8.66072 7.26479 8.14149 7.68589 7.73992C8.10699 7.33836 8.64904 7.13757 9.31389 7.13757C9.97874 7.13757 10.499 7.33836 10.9192 7.73992C11.3403 8.14149 11.5504 8.64578 11.5504 9.25186C11.5504 9.85795 11.3403 10.3398 10.9192 10.7414C10.4981 11.1429 9.96328 11.3437 9.31389 11.3437C8.66451 11.3437 8.10699 11.1429 7.68589 10.7414ZM11.1957 13.0443V25.3499H7.4094V13.0443H11.1957Z" fill="#FEFFFC"/>
<path d="M23.8025 14.2593C24.6274 15.1791 25.0403 16.4426 25.0403 18.0508V25.1332H21.4432V18.5504C21.4432 17.7398 21.2386 17.1094 20.8293 16.6602C20.42 16.211 19.8698 15.9869 19.1786 15.9869C18.4873 15.9869 17.9371 16.212 17.5278 16.6602C17.1185 17.1094 16.9139 17.7398 16.9139 18.5504V25.1332H13.2959V13.0107H16.9139V14.6188C17.2804 14.0827 17.7743 13.6597 18.3955 13.3478C19.0158 13.0368 19.7143 12.8809 20.4901 12.8809C21.8725 12.8809 22.9767 13.3412 23.8016 14.2602L23.8025 14.2593Z" fill="#FEFFFC"/>
</svg>
