<svg width="26" height="28" viewBox="0 0 26 28" fill="none" xmlns="http://www.w3.org/2000/svg">
<path d="M24.96 6.82239L13.96 1.1231C13.6661 0.969319 13.3358 0.888657 13 0.888657C12.6642 0.888657 12.3339 0.969319 12.04 1.1231L1.04 6.82476C0.725861 6.98752 0.463629 7.22715 0.28069 7.51865C0.0977502 7.81014 0.000812822 8.14279 0 8.48187V19.8023C0.000812822 20.1414 0.0977502 20.4741 0.28069 20.7656C0.463629 21.0571 0.725861 21.2967 1.04 21.4595L12.04 27.1611C12.3339 27.3149 12.6642 27.3956 13 27.3956C13.3358 27.3956 13.6661 27.3149 13.96 27.1611L24.96 21.4595C25.2741 21.2967 25.5364 21.0571 25.7193 20.7656C25.9023 20.4741 25.9992 20.1414 26 19.8023V8.48306C25.9999 8.14337 25.9032 7.80998 25.7203 7.51781C25.5373 7.22563 25.2747 6.98544 24.96 6.82239ZM13 2.78021L23.0425 7.98829L13 13.1964L2.9575 7.98829L13 2.78021ZM2 9.64541L12 14.8274V24.982L2 19.8035V9.64541ZM14 24.982V14.8322L24 9.64541V19.7988L14 24.982Z" fill="#DCDCE1"/>
</svg>
