<svg width="32" height="32" viewBox="0 0 32 32" fill="none" xmlns="http://www.w3.org/2000/svg">
<g id="UserList">
<path id="Vector" d="M31 4.73181H22C21.2238 4.73181 20.4582 4.90294 19.7639 5.23166C19.0697 5.56037 18.4657 6.03764 18 6.62566C17.5343 6.03764 16.9303 5.56037 16.2361 5.23166C15.5418 4.90294 14.7762 4.73181 14 4.73181H5C4.73478 4.73181 4.48043 4.83158 4.29289 5.00916C4.10536 5.18674 4 5.4276 4 5.67873V22.7234C4 22.9745 4.10536 23.2153 4.29289 23.3929C4.48043 23.5705 4.73478 23.6703 5 23.6703H14C14.7956 23.6703 15.5587 23.9696 16.1213 24.5023C16.6839 25.0351 17 25.7576 17 26.511C17 26.7622 17.1054 27.003 17.2929 27.1806C17.4804 27.3582 17.7348 27.458 18 27.458C18.2652 27.458 18.5196 27.3582 18.7071 27.1806C18.8946 27.003 19 26.7622 19 26.511C19 25.7576 19.3161 25.0351 19.8787 24.5023C20.4413 23.9696 21.2044 23.6703 22 23.6703H31C31.2652 23.6703 31.5196 23.5705 31.7071 23.3929C31.8946 23.2153 32 22.9745 32 22.7234V5.67873C32 5.4276 31.8946 5.18674 31.7071 5.00916C31.5196 4.83158 31.2652 4.73181 31 4.73181ZM14 21.7764H6V6.62566H14C14.7956 6.62566 15.5587 6.92495 16.1213 7.4577C16.6839 7.99045 17 8.71301 17 9.46643V22.7234C16.1353 22.1072 15.0821 21.7748 14 21.7764ZM30 21.7764H22C20.9179 21.7748 19.8647 22.1072 19 22.7234V9.46643C19 8.71301 19.3161 7.99045 19.8787 7.4577C20.4413 6.92495 21.2044 6.62566 22 6.62566H30V21.7764ZM22 9.46643H27C27.2652 9.46643 27.5196 9.56619 27.7071 9.74378C27.8946 9.92136 28 10.1622 28 10.4134C28 10.6645 27.8946 10.9053 27.7071 11.0829C27.5196 11.2605 27.2652 11.3603 27 11.3603H22C21.7348 11.3603 21.4804 11.2605 21.2929 11.0829C21.1054 10.9053 21 10.6645 21 10.4134C21 10.1622 21.1054 9.92136 21.2929 9.74378C21.4804 9.56619 21.7348 9.46643 22 9.46643ZM28 14.201C28 14.4522 27.8946 14.693 27.7071 14.8706C27.5196 15.0482 27.2652 15.148 27 15.148H22C21.7348 15.148 21.4804 15.0482 21.2929 14.8706C21.1054 14.693 21 14.4522 21 14.201C21 13.9499 21.1054 13.7091 21.2929 13.5315C21.4804 13.3539 21.7348 13.2541 22 13.2541H27C27.2652 13.2541 27.5196 13.3539 27.7071 13.5315C27.8946 13.7091 28 13.9499 28 14.201ZM28 17.9887C28 18.2399 27.8946 18.4807 27.7071 18.6583C27.5196 18.8359 27.2652 18.9357 27 18.9357H22C21.7348 18.9357 21.4804 18.8359 21.2929 18.6583C21.1054 18.4807 21 18.2399 21 17.9887C21 17.7376 21.1054 17.4967 21.2929 17.3192C21.4804 17.1416 21.7348 17.0418 22 17.0418H27C27.2652 17.0418 27.5196 17.1416 27.7071 17.3192C27.8946 17.4967 28 17.7376 28 17.9887Z" fill="#DCDCE1"/>
</g>
</svg>
