<svg width="67" height="16" viewBox="0 0 67 16" fill="none" xmlns="http://www.w3.org/2000/svg">
<path d="M8.78864 5.05227C8.73409 4.50227 8.5 4.075 8.08636 3.77045C7.67273 3.46591 7.11136 3.31364 6.40227 3.31364C5.92045 3.31364 5.51364 3.38182 5.18182 3.51818C4.85 3.65 4.59545 3.83409 4.41818 4.07045C4.24545 4.30682 4.15909 4.575 4.15909 4.875C4.15 5.125 4.20227 5.34318 4.31591 5.52955C4.43409 5.71591 4.59545 5.87727 4.8 6.01364C5.00455 6.14545 5.24091 6.26136 5.50909 6.36136C5.77727 6.45682 6.06364 6.53864 6.36818 6.60682L7.62273 6.90682C8.23182 7.04318 8.79091 7.225 9.3 7.45227C9.80909 7.67954 10.25 7.95909 10.6227 8.29091C10.9955 8.62273 11.2841 9.01364 11.4886 9.46364C11.6977 9.91364 11.8045 10.4295 11.8091 11.0114C11.8045 11.8659 11.5864 12.6068 11.1545 13.2341C10.7273 13.8568 10.1091 14.3409 9.3 14.6864C8.49546 15.0273 7.525 15.1977 6.38864 15.1977C5.26136 15.1977 4.27955 15.025 3.44318 14.6795C2.61136 14.3341 1.96136 13.8227 1.49318 13.1455C1.02955 12.4636 0.786364 11.6205 0.763636 10.6159H3.62045C3.65227 11.0841 3.78636 11.475 4.02273 11.7886C4.26364 12.0977 4.58409 12.3318 4.98409 12.4909C5.38864 12.6455 5.84545 12.7227 6.35455 12.7227C6.85455 12.7227 7.28864 12.65 7.65682 12.5045C8.02955 12.3591 8.31818 12.1568 8.52273 11.8977C8.72727 11.6386 8.82955 11.3409 8.82955 11.0045C8.82955 10.6909 8.73636 10.4273 8.55 10.2136C8.36818 10 8.1 9.81818 7.74545 9.66818C7.39545 9.51818 6.96591 9.38182 6.45682 9.25909L4.93636 8.87727C3.75909 8.59091 2.82955 8.14318 2.14773 7.53409C1.46591 6.925 1.12727 6.10454 1.13182 5.07273C1.12727 4.22727 1.35227 3.48864 1.80682 2.85682C2.26591 2.225 2.89545 1.73182 3.69545 1.37727C4.49545 1.02273 5.40455 0.845453 6.42273 0.845453C7.45909 0.845453 8.36364 1.02273 9.13636 1.37727C9.91364 1.73182 10.5182 2.225 10.95 2.85682C11.3818 3.48864 11.6045 4.22045 11.6182 5.05227H8.78864ZM18.5131 15.2045C17.4358 15.2045 16.5085 14.9864 15.7313 14.55C14.9585 14.1091 14.3631 13.4864 13.9449 12.6818C13.5267 11.8727 13.3176 10.9159 13.3176 9.81136C13.3176 8.73409 13.5267 7.78864 13.9449 6.975C14.3631 6.16136 14.9517 5.52727 15.7108 5.07273C16.4744 4.61818 17.3699 4.39091 18.3972 4.39091C19.0881 4.39091 19.7313 4.50227 20.3267 4.725C20.9267 4.94318 21.4494 5.27273 21.8949 5.71364C22.3449 6.15455 22.6949 6.70909 22.9449 7.37727C23.1949 8.04091 23.3199 8.81818 23.3199 9.70909V10.5068H14.4767V8.70682H20.5858C20.5858 8.28864 20.4949 7.91818 20.3131 7.59545C20.1313 7.27273 19.879 7.02045 19.5563 6.83864C19.2381 6.65227 18.8676 6.55909 18.4449 6.55909C18.004 6.55909 17.6131 6.66136 17.2722 6.86591C16.9358 7.06591 16.6722 7.33636 16.4813 7.67727C16.2903 8.01364 16.1926 8.38864 16.1881 8.80227V10.5136C16.1881 11.0318 16.2835 11.4795 16.4744 11.8568C16.6699 12.2341 16.9449 12.525 17.2994 12.7295C17.654 12.9341 18.0744 13.0364 18.5608 13.0364C18.8835 13.0364 19.179 12.9909 19.4472 12.9C19.7153 12.8091 19.9449 12.6727 20.1358 12.4909C20.3267 12.3091 20.4722 12.0864 20.5722 11.8227L23.2585 12C23.1222 12.6455 22.8426 13.2091 22.4199 13.6909C22.0017 14.1682 21.4608 14.5409 20.7972 14.8091C20.1381 15.0727 19.3767 15.2045 18.5131 15.2045ZM28.1199 8.94545V15H25.2153V4.52727H27.9835V6.375H28.1063C28.3381 5.76591 28.7267 5.28409 29.2722 4.92954C29.8176 4.57045 30.479 4.39091 31.2563 4.39091C31.9835 4.39091 32.6176 4.55 33.1585 4.86818C33.6994 5.18636 34.1199 5.64091 34.4199 6.23182C34.7199 6.81818 34.8699 7.51818 34.8699 8.33182V15H31.9653V8.85C31.9699 8.20909 31.8063 7.70909 31.4744 7.35C31.1426 6.98636 30.6858 6.80455 30.104 6.80455C29.7131 6.80455 29.3676 6.88864 29.0676 7.05682C28.7722 7.225 28.5403 7.47045 28.3722 7.79318C28.2085 8.11136 28.1244 8.49545 28.1199 8.94545ZM45.8727 7.51364L43.2136 7.67727C43.1682 7.45 43.0705 7.24545 42.9205 7.06364C42.7705 6.87727 42.5727 6.72954 42.3273 6.62045C42.0864 6.50682 41.7977 6.45 41.4614 6.45C41.0114 6.45 40.6318 6.54545 40.3227 6.73636C40.0136 6.92273 39.8591 7.17273 39.8591 7.48636C39.8591 7.73636 39.9591 7.94773 40.1591 8.12045C40.3591 8.29318 40.7023 8.43182 41.1886 8.53636L43.0841 8.91818C44.1023 9.12727 44.8614 9.46364 45.3614 9.92727C45.8614 10.3909 46.1114 11 46.1114 11.7545C46.1114 12.4409 45.9091 13.0432 45.5045 13.5614C45.1045 14.0795 44.5545 14.4841 43.8545 14.775C43.1591 15.0614 42.3568 15.2045 41.4477 15.2045C40.0614 15.2045 38.9568 14.9159 38.1341 14.3386C37.3159 13.7568 36.8364 12.9659 36.6955 11.9659L39.5523 11.8159C39.6386 12.2386 39.8477 12.5614 40.1795 12.7841C40.5114 13.0023 40.9364 13.1114 41.4545 13.1114C41.9636 13.1114 42.3727 13.0136 42.6818 12.8182C42.9955 12.6182 43.1545 12.3614 43.1591 12.0477C43.1545 11.7841 43.0432 11.5682 42.825 11.4C42.6068 11.2273 42.2705 11.0955 41.8159 11.0045L40.0023 10.6432C38.9795 10.4386 38.2182 10.0841 37.7182 9.57955C37.2227 9.075 36.975 8.43182 36.975 7.65C36.975 6.97727 37.1568 6.39773 37.5205 5.91136C37.8886 5.425 38.4045 5.05 39.0682 4.78636C39.7364 4.52273 40.5182 4.39091 41.4136 4.39091C42.7364 4.39091 43.7773 4.67045 44.5364 5.22954C45.3 5.78864 45.7455 6.55 45.8727 7.51364ZM52.6722 15.2045C51.6131 15.2045 50.6972 14.9795 49.9244 14.5295C49.1563 14.075 48.5631 13.4432 48.1449 12.6341C47.7267 11.8205 47.5176 10.8773 47.5176 9.80455C47.5176 8.72273 47.7267 7.77727 48.1449 6.96818C48.5631 6.15454 49.1563 5.52273 49.9244 5.07273C50.6972 4.61818 51.6131 4.39091 52.6722 4.39091C53.7313 4.39091 54.6449 4.61818 55.4131 5.07273C56.1858 5.52273 56.7813 6.15454 57.1994 6.96818C57.6176 7.77727 57.8267 8.72273 57.8267 9.80455C57.8267 10.8773 57.6176 11.8205 57.1994 12.6341C56.7813 13.4432 56.1858 14.075 55.4131 14.5295C54.6449 14.9795 53.7313 15.2045 52.6722 15.2045ZM52.6858 12.9545C53.1676 12.9545 53.5699 12.8182 53.8926 12.5455C54.2153 12.2682 54.4585 11.8909 54.6222 11.4136C54.7903 10.9364 54.8744 10.3932 54.8744 9.78409C54.8744 9.175 54.7903 8.63182 54.6222 8.15455C54.4585 7.67727 54.2153 7.3 53.8926 7.02273C53.5699 6.74545 53.1676 6.60682 52.6858 6.60682C52.1994 6.60682 51.7903 6.74545 51.4585 7.02273C51.1313 7.3 50.8835 7.67727 50.7153 8.15455C50.5517 8.63182 50.4699 9.175 50.4699 9.78409C50.4699 10.3932 50.5517 10.9364 50.7153 11.4136C50.8835 11.8909 51.1313 12.2682 51.4585 12.5455C51.7903 12.8182 52.1994 12.9545 52.6858 12.9545ZM59.7153 15V4.52727H62.5313V6.35455H62.6403C62.8313 5.70454 63.1517 5.21364 63.6017 4.88182C64.0517 4.54545 64.5699 4.37727 65.1563 4.37727C65.3017 4.37727 65.4585 4.38636 65.6267 4.40454C65.7949 4.42273 65.9426 4.44773 66.0699 4.47954V7.05682C65.9335 7.01591 65.7449 6.97954 65.504 6.94773C65.2631 6.91591 65.0426 6.9 64.8426 6.9C64.4153 6.9 64.0335 6.99318 63.6972 7.17955C63.3653 7.36136 63.1017 7.61591 62.9063 7.94318C62.7153 8.27045 62.6199 8.64773 62.6199 9.075V15H59.7153Z" fill="#E1E1E6"/>
</svg>
