<svg width="15" height="15" viewBox="0 0 15 15" fill="none" xmlns="http://www.w3.org/2000/svg">
<path d="M14.705 14.3121C14.6655 14.3956 14.6099 14.4706 14.5414 14.5327C14.4729 14.5948 14.3928 14.6427 14.3057 14.6738C14.2187 14.705 14.1264 14.7186 14.034 14.714C13.9417 14.7094 13.8512 14.6867 13.7676 14.6471L0.402324 8.31612C0.281959 8.25911 0.180252 8.1691 0.109031 8.05656C0.0378092 7.94402 0 7.81358 0 7.68039C0 7.54721 0.0378092 7.41676 0.109031 7.30422C0.180252 7.19168 0.281959 7.10167 0.402324 7.04466L13.7676 0.713722C13.8511 0.674173 13.9416 0.651455 14.0338 0.646865C14.1261 0.642275 14.2184 0.655903 14.3054 0.686971C14.3924 0.718039 14.4724 0.765939 14.5409 0.827935C14.6094 0.88993 14.665 0.964809 14.7045 1.04829C14.7441 1.13178 14.7668 1.22224 14.7714 1.3145C14.776 1.40677 14.7623 1.49903 14.7313 1.58603C14.7002 1.67303 14.6523 1.75306 14.5903 1.82154C14.5283 1.89003 14.4534 1.94564 14.37 1.98519L2.34733 7.68039L14.37 13.3756C14.5385 13.4554 14.6685 13.5989 14.7313 13.7745C14.7942 13.9501 14.7847 14.1434 14.705 14.3121Z" fill="#212125"/>
</svg>
