<svg width="13" height="15" viewBox="0 0 13 15" fill="none" xmlns="http://www.w3.org/2000/svg">
<path d="M12.4305 13.7125C12.3971 13.7963 12.3502 13.8714 12.2922 13.9337C12.2343 13.9959 12.1667 14.044 12.0931 14.0752C12.0195 14.1064 11.9414 14.12 11.8634 14.1154C11.7853 14.1108 11.7088 14.088 11.6382 14.0483L0.340096 7.70214C0.238348 7.645 0.152372 7.55477 0.0921668 7.44196C0.0319612 7.32915 0 7.19839 0 7.06488C0 6.93138 0.0319612 6.80062 0.0921668 6.68781C0.152372 6.57499 0.238348 6.48477 0.340096 6.42762L11.6382 0.0814383C11.7088 0.0417943 11.7852 0.0190216 11.8632 0.0144207C11.9412 0.00981985 12.0192 0.023481 12.0928 0.0546237C12.1663 0.0857665 12.2339 0.133781 12.2918 0.195926C12.3497 0.258071 12.3967 0.33313 12.4302 0.416816C12.4636 0.500503 12.4828 0.591178 12.4867 0.683666C12.4906 0.776153 12.479 0.868641 12.4528 0.955849C12.4265 1.04306 12.386 1.12328 12.3336 1.19193C12.2812 1.26058 12.2179 1.31632 12.1473 1.35596L1.98427 7.06488L12.1473 12.7738C12.2898 12.8538 12.3997 12.9976 12.4528 13.1736C12.5059 13.3497 12.4979 13.5435 12.4305 13.7125Z" fill="#84848E"/>
</svg>
