<svg width="14" height="15" viewBox="0 0 14 15" fill="none" xmlns="http://www.w3.org/2000/svg">
<path d="M13.0561 7.06488C13.0561 7.19843 13.0241 7.32922 12.9638 7.44204C12.9035 7.55485 12.8175 7.64505 12.7157 7.70215L1.41759 14.0483C1.34702 14.088 1.27055 14.1107 1.19256 14.1153C1.11456 14.1199 1.03657 14.1063 0.963026 14.0751C0.889483 14.044 0.821834 13.996 0.76394 13.9338C0.706046 13.8717 0.659041 13.7966 0.625609 13.713C0.592178 13.6293 0.572974 13.5386 0.569094 13.4461C0.565214 13.3536 0.576734 13.2611 0.602997 13.1739C0.629259 13.0867 0.66975 13.0065 0.722157 12.9378C0.774564 12.8692 0.837861 12.8134 0.908434 12.7738L11.0723 7.06488L0.909177 1.35596C0.838604 1.31632 0.775307 1.26058 0.7229 1.19193C0.670493 1.12328 0.630003 1.04306 0.60374 0.955849C0.577477 0.868641 0.565957 0.776153 0.569837 0.683666C0.573717 0.591178 0.592921 0.500503 0.626353 0.416816C0.659785 0.33313 0.706789 0.258071 0.764683 0.195926C0.822577 0.133781 0.890226 0.0857665 0.963769 0.0546237C1.03731 0.023481 1.11531 0.00981985 1.1933 0.0144207C1.2713 0.0190216 1.34776 0.0417943 1.41833 0.0814383L12.7164 6.42762C12.8181 6.48484 12.904 6.57509 12.9641 6.6879C13.0243 6.80071 13.0562 6.93143 13.0561 7.06488Z" fill="#84848E"/>
</svg>
