<svg width="15" height="15" viewBox="0 0 15 15" fill="none" xmlns="http://www.w3.org/2000/svg">
<path d="M15.0002 7.68039C15.0002 7.81362 14.9623 7.9441 14.891 8.05664C14.8197 8.16919 14.7179 8.25917 14.5975 8.31613L1.23216 14.6471C1.14867 14.6866 1.05821 14.7093 0.965947 14.7139C0.873682 14.7185 0.781416 14.7049 0.694418 14.6738C0.607419 14.6427 0.527392 14.5948 0.458905 14.5329C0.390418 14.4709 0.334813 14.396 0.295264 14.3125C0.255715 14.229 0.232998 14.1386 0.228408 14.0463C0.223818 13.954 0.237446 13.8618 0.268514 13.7748C0.299582 13.6878 0.347481 13.6077 0.409477 13.5392C0.471473 13.4708 0.546351 13.4152 0.629837 13.3756L12.6533 7.68039L0.630716 1.98519C0.547231 1.94564 0.472352 1.89003 0.410356 1.82154C0.34836 1.75306 0.300461 1.67303 0.269393 1.58603C0.238325 1.49903 0.224697 1.40677 0.229287 1.3145C0.233877 1.22224 0.256595 1.13178 0.296144 1.04829C0.335692 0.964809 0.391297 0.88993 0.459784 0.827935C0.528271 0.765939 0.608298 0.718039 0.695297 0.686971C0.782295 0.655903 0.874561 0.642275 0.966827 0.646865C1.05909 0.651455 1.14955 0.674173 1.23303 0.713722L14.5984 7.04466C14.7186 7.10174 14.8202 7.19178 14.8914 7.30432C14.9625 7.41685 15.0002 7.54726 15.0002 7.68039Z" fill="#212125"/>
</svg>
