<svg width="39" height="26" viewBox="0 0 39 26" fill="none" xmlns="http://www.w3.org/2000/svg">
<g id="Vector" filter="url(#filter0_d_1_417)">
<path d="M22.0017 3.70963C22.0017 3.45849 22.1071 3.21764 22.2946 3.04006C22.4822 2.86248 22.7365 2.76271 23.0017 2.76271H34.0017C34.267 2.76271 34.5213 2.86248 34.7088 3.04006C34.8964 3.21764 35.0017 3.45849 35.0017 3.70963C35.0017 3.96077 34.8964 4.20163 34.7088 4.37921C34.5213 4.55679 34.267 4.65656 34.0017 4.65656H23.0017C22.7365 4.65656 22.4822 4.55679 22.2946 4.37921C22.1071 4.20163 22.0017 3.96077 22.0017 3.70963ZM34.0017 8.44425H23.0017C22.7365 8.44425 22.4822 8.54401 22.2946 8.7216C22.1071 8.89918 22.0017 9.14003 22.0017 9.39117C22.0017 9.64231 22.1071 9.88317 22.2946 10.0608C22.4822 10.2383 22.7365 10.3381 23.0017 10.3381H34.0017C34.267 10.3381 34.5213 10.2383 34.7088 10.0608C34.8964 9.88317 35.0017 9.64231 35.0017 9.39117C35.0017 9.14003 34.8964 8.89918 34.7088 8.7216C34.5213 8.54401 34.267 8.44425 34.0017 8.44425ZM34.0017 14.1258H26.0017C25.7365 14.1258 25.4822 14.2256 25.2946 14.4031C25.1071 14.5807 25.0017 14.8216 25.0017 15.0727C25.0017 15.3239 25.1071 15.5647 25.2946 15.7423C25.4822 15.9199 25.7365 16.0196 26.0017 16.0196H34.0017C34.267 16.0196 34.5213 15.9199 34.7088 15.7423C34.8964 15.5647 35.0017 15.3239 35.0017 15.0727C35.0017 14.8216 34.8964 14.5807 34.7088 14.4031C34.5213 14.2256 34.267 14.1258 34.0017 14.1258ZM21.9705 16.7298C22.0032 16.8503 22.0105 16.9757 21.992 17.0988C21.9735 17.222 21.9296 17.3404 21.8627 17.4475C21.7958 17.5546 21.7074 17.6481 21.6023 17.7228C21.4973 17.7974 21.3777 17.8518 21.2505 17.8827C21.169 17.9035 21.0849 17.9139 21.0005 17.9135C20.7787 17.9136 20.5632 17.8439 20.3878 17.7153C20.2124 17.5868 20.0872 17.4066 20.0317 17.2033C19.2617 14.3696 16.2392 12.2319 13.0005 12.2319C9.76174 12.2319 6.73924 14.3684 5.96924 17.2033C5.90294 17.4466 5.73728 17.655 5.50872 17.7826C5.28016 17.9102 5.00742 17.9467 4.75049 17.8839C4.49356 17.8211 4.2735 17.6642 4.1387 17.4478C4.00391 17.2314 3.96544 16.9731 4.03174 16.7298C4.73049 14.1601 6.76174 12.0793 9.33924 11.0483C8.34678 10.3244 7.61848 9.32459 7.25647 8.18896C6.89446 7.05333 6.91691 5.83889 7.32067 4.71596C7.72443 3.59303 8.48924 2.61793 9.50785 1.92741C10.5265 1.23689 11.7478 0.865601 13.0005 0.865601C14.2532 0.865601 15.4745 1.23689 16.4931 1.92741C17.5117 2.61793 18.2766 3.59303 18.6803 4.71596C19.0841 5.83889 19.1065 7.05333 18.7445 8.18896C18.3825 9.32459 17.6542 10.3244 16.6617 11.0483C19.2405 12.0793 21.2717 14.1601 21.9705 16.7298ZM13.0017 10.3381C13.7929 10.3381 14.5662 10.116 15.224 9.69975C15.8818 9.28356 16.3945 8.692 16.6973 7.99989C17 7.30778 17.0792 6.5462 16.9249 5.81146C16.7705 5.07672 16.3896 4.40182 15.8302 3.8721C15.2708 3.34238 14.558 2.98164 13.7821 2.83549C13.0062 2.68934 12.2019 2.76435 11.471 3.05103C10.7401 3.33771 10.1154 3.82319 9.67586 4.44607C9.23634 5.06896 9.00174 5.80127 9.00174 6.5504C9.00174 7.55496 9.42317 8.51838 10.1733 9.22871C10.9235 9.93904 11.9409 10.3381 13.0017 10.3381Z" fill="#DCDCE1"/>
</g>
<defs>
<filter id="filter0_d_1_417" x="0" y="0.865601" width="39.002" height="25.0483" filterUnits="userSpaceOnUse" color-interpolation-filters="sRGB">
<feFlood flood-opacity="0" result="BackgroundImageFix"/>
<feColorMatrix in="SourceAlpha" type="matrix" values="0 0 0 0 0 0 0 0 0 0 0 0 0 0 0 0 0 0 127 0" result="hardAlpha"/>
<feOffset dy="4"/>
<feGaussianBlur stdDeviation="2"/>
<feComposite in2="hardAlpha" operator="out"/>
<feColorMatrix type="matrix" values="0 0 0 0 0 0 0 0 0 0 0 0 0 0 0 0 0 0 0.25 0"/>
<feBlend mode="normal" in2="BackgroundImageFix" result="effect1_dropShadow_1_417"/>
<feBlend mode="normal" in="SourceGraphic" in2="effect1_dropShadow_1_417" result="shape"/>
</filter>
</defs>
</svg>
