<svg width="32" height="31" viewBox="0 0 32 31" fill="none" xmlns="http://www.w3.org/2000/svg">
<g id="Cpu" clip-path="url(#clip0_1_412)">
<path id="Vector" d="M17 9.49175H11C10.7348 9.49175 10.4804 9.59152 10.2929 9.7691C10.1054 9.94668 10 10.1875 10 10.4387V16.1202C10 16.3714 10.1054 16.6122 10.2929 16.7898C10.4804 16.9674 10.7348 17.0671 11 17.0671H17C17.2652 17.0671 17.5196 16.9674 17.7071 16.7898C17.8946 16.6122 18 16.3714 18 16.1202V10.4387C18 10.1875 17.8946 9.94668 17.7071 9.7691C17.5196 9.59152 17.2652 9.49175 17 9.49175ZM16 15.1733H12V11.3856H16V15.1733ZM27 15.1733H25V11.3856H27C27.2652 11.3856 27.5196 11.2858 27.7071 11.1083C27.8946 10.9307 28 10.6898 28 10.4387C28 10.1875 27.8946 9.94668 27.7071 9.7691C27.5196 9.59152 27.2652 9.49175 27 9.49175H25V4.75714C25 4.25486 24.7893 3.77315 24.4142 3.41799C24.0391 3.06282 23.5304 2.86329 23 2.86329H18V0.969445C18 0.718306 17.8946 0.477452 17.7071 0.299869C17.5196 0.122287 17.2652 0.022522 17 0.022522C16.7348 0.022522 16.4804 0.122287 16.2929 0.299869C16.1054 0.477452 16 0.718306 16 0.969445V2.86329H12V0.969445C12 0.718306 11.8946 0.477452 11.7071 0.299869C11.5196 0.122287 11.2652 0.022522 11 0.022522C10.7348 0.022522 10.4804 0.122287 10.2929 0.299869C10.1054 0.477452 10 0.718306 10 0.969445V2.86329H5C4.46957 2.86329 3.96086 3.06282 3.58579 3.41799C3.21071 3.77315 3 4.25486 3 4.75714V9.49175H1C0.734784 9.49175 0.48043 9.59152 0.292893 9.7691C0.105357 9.94668 0 10.1875 0 10.4387C0 10.6898 0.105357 10.9307 0.292893 11.1083C0.48043 11.2858 0.734784 11.3856 1 11.3856H3V15.1733H1C0.734784 15.1733 0.48043 15.2731 0.292893 15.4506C0.105357 15.6282 0 15.8691 0 16.1202C0 16.3714 0.105357 16.6122 0.292893 16.7898C0.48043 16.9674 0.734784 17.0671 1 17.0671H3V21.8018C3 22.304 3.21071 22.7857 3.58579 23.1409C3.96086 23.4961 4.46957 23.6956 5 23.6956H10V25.5895C10 25.8406 10.1054 26.0814 10.2929 26.259C10.4804 26.4366 10.7348 26.5364 11 26.5364C11.2652 26.5364 11.5196 26.4366 11.7071 26.259C11.8946 26.0814 12 25.8406 12 25.5895V23.6956H16V25.5895C16 25.8406 16.1054 26.0814 16.2929 26.259C16.4804 26.4366 16.7348 26.5364 17 26.5364C17.2652 26.5364 17.5196 26.4366 17.7071 26.259C17.8946 26.0814 18 25.8406 18 25.5895V23.6956H23C23.5304 23.6956 24.0391 23.4961 24.4142 23.1409C24.7893 22.7857 25 22.304 25 21.8018V17.0671H27C27.2652 17.0671 27.5196 16.9674 27.7071 16.7898C27.8946 16.6122 28 16.3714 28 16.1202C28 15.8691 27.8946 15.6282 27.7071 15.4506C27.5196 15.2731 27.2652 15.1733 27 15.1733ZM23 21.8018H5V4.75714H23V16.1048C23 16.1048 23 16.1155 23 16.1202C23 16.125 23 16.1309 23 16.1356V21.8018Z" fill="#DCDCE1"/>
</g>
<defs>
<clipPath id="clip0_1_412">
<rect width="32" height="30.3015" fill="white" transform="translate(0 0.022522)"/>
</clipPath>
</defs>
</svg>
