<svg width="25" height="25" viewBox="0 0 25 25" fill="none" xmlns="http://www.w3.org/2000/svg">
<g clip-path="url(#clip0_243_2)">
<path d="M0.580774 25C0.440394 25 0.303828 24.9445 0.202548 24.8421C0.0690335 24.707 0.0175352 24.511 0.0676984 24.3277L1.69295 18.3928C0.681101 16.563 0.147616 14.4932 0.148379 12.392C0.15124 5.55897 5.71192 0 12.5444 0C15.8584 0.00133515 18.9724 1.29223 21.3129 3.63445C23.653 5.97687 24.9412 9.09061 24.9402 12.402C24.9372 19.2352 19.3765 24.7946 12.5444 24.7946C12.5444 24.7946 12.5393 24.7946 12.5391 24.7946C10.5434 24.7938 8.56492 24.3074 6.8033 23.3862L0.715624 24.9826C0.670992 24.9943 0.625597 25 0.580774 25V25Z" fill="#E5E5E5"/>
<path d="M0.580566 24.468L2.26361 18.322C1.22544 16.5232 0.679367 14.4827 0.68013 12.3922C0.6828 5.85252 6.00469 0.531982 12.5442 0.531982C15.7177 0.533318 18.6964 1.76851 20.9364 4.01041C23.1762 6.2523 24.4093 9.23233 24.4082 12.4018C24.4053 18.9413 19.0826 24.2626 12.5442 24.2626C12.5439 24.2626 12.5444 24.2626 12.5442 24.2626H12.5391C10.5535 24.2618 8.6027 23.7638 6.86987 22.8187L0.580566 24.468ZM7.16112 20.6716L7.52142 20.8851C9.03509 21.7834 10.7706 22.2585 12.5404 22.2595H12.5442C17.979 22.2595 22.4026 17.8367 22.4049 12.401C22.4058 9.76677 21.3812 7.2897 19.5194 5.42642C17.6575 3.56313 15.1819 2.53641 12.5479 2.53527C7.10867 2.53527 2.68533 6.95744 2.68323 12.393C2.68247 14.2557 3.20356 16.0696 4.1908 17.6393L4.42541 18.0124L3.429 21.6501L7.16112 20.6716Z" fill="white"/>
<path d="M0.993164 24.0541L2.61803 18.1205C1.61553 16.384 1.08853 14.4139 1.0891 12.3962C1.09158 6.08283 6.2294 0.946533 12.5422 0.946533C15.6061 0.947868 18.4818 2.14034 20.6438 4.30461C22.8063 6.46888 23.9965 9.34573 23.9954 12.4051C23.9927 18.7186 18.8547 23.8555 12.5427 23.8555V23.8555H12.5376C10.6209 23.8547 8.73737 23.3737 7.06463 22.462L0.993164 24.0541Z" fill="#64B161"/>
<path d="M0.580566 24.468L2.26361 18.322C1.22544 16.5232 0.679367 14.4827 0.68013 12.3922C0.6828 5.85252 6.00469 0.531982 12.5442 0.531982C15.7177 0.533318 18.6964 1.76851 20.9364 4.01041C23.1762 6.2523 24.4093 9.23233 24.4082 12.4018C24.4053 18.9413 19.0826 24.2626 12.5442 24.2626C12.5439 24.2626 12.5444 24.2626 12.5442 24.2626H12.5391C10.5535 24.2618 8.6027 23.7638 6.86987 22.8187L0.580566 24.468ZM7.16112 20.6716L7.52142 20.8851C9.03509 21.7834 10.7706 22.2585 12.5404 22.2595H12.5442C17.979 22.2595 22.4026 17.8367 22.4049 12.401C22.4058 9.76677 21.3812 7.2897 19.5194 5.42642C17.6575 3.56313 15.1819 2.53641 12.5479 2.53527C7.10867 2.53527 2.68533 6.95744 2.68323 12.393C2.68247 14.2557 3.20356 16.0696 4.1908 17.6393L4.42541 18.0124L3.429 21.6501L7.16112 20.6716Z" fill="white"/>
<path fill-rule="evenodd" clip-rule="evenodd" d="M9.57901 7.43398C9.357 6.94036 9.12316 6.93044 8.91182 6.92186C8.73902 6.91442 8.54122 6.9148 8.34381 6.9148C8.14621 6.9148 7.82502 6.98919 7.55341 7.28578C7.28161 7.58237 6.51562 8.29954 6.51562 9.7581C6.51562 11.2168 7.57802 12.6262 7.72622 12.8242C7.87442 13.022 9.77699 16.1107 12.79 17.299C15.2942 18.2867 15.8036 18.0902 16.3472 18.0408C16.8908 17.9914 18.101 17.3236 18.348 16.6315C18.5952 15.9393 18.5952 15.3461 18.521 15.2219C18.4468 15.0985 18.2492 15.0243 17.9528 14.8761C17.6564 14.7279 16.199 14.0106 15.9272 13.9118C15.6554 13.8128 15.4578 13.7635 15.2602 14.0603C15.0624 14.3567 14.4948 15.0243 14.3218 15.2219C14.1488 15.4201 13.9758 15.4449 13.6794 15.2965C13.383 15.1479 12.4282 14.8351 11.2956 13.8252C10.4144 13.0395 9.81934 12.0691 9.64634 11.7723C9.47353 11.4759 9.64348 11.3294 9.77661 11.1674C10.0164 10.8758 10.4186 10.3515 10.5174 10.1539C10.6162 9.95589 10.5668 9.78289 10.4928 9.6345C10.4186 9.4863 9.84241 8.0203 9.57901 7.43398V7.43398Z" fill="white"/>
</g>
<defs>
<clipPath id="clip0_243_2">
<rect width="25" height="25" fill="white"/>
</clipPath>
</defs>
</svg>
